<svg width="21" height="19" viewBox="0 0 21 19" fill="none" xmlns="http://www.w3.org/2000/svg">
<path d="M18.5013 10.5719L11.0013 17.9999L3.50128 10.5719C3.00658 10.0905 2.61692 9.51195 2.35683 8.87257C2.09673 8.23319 1.97184 7.54688 1.99002 6.85687C2.00819 6.16685 2.16904 5.48807 2.46244 4.86327C2.75583 4.23847 3.17541 3.68119 3.69476 3.22651C4.21411 2.77184 4.82198 2.42962 5.48009 2.22141C6.1382 2.01321 6.83228 1.94352 7.51865 2.01673C8.20501 2.08995 8.86878 2.30449 9.46815 2.64684C10.0675 2.98919 10.5895 3.45193 11.0013 4.00593C11.4148 3.45595 11.9374 2.99725 12.5364 2.65854C13.1353 2.31982 13.7978 2.10838 14.4822 2.03745C15.1666 1.96652 15.8584 2.03763 16.5141 2.24632C17.1697 2.45502 17.7753 2.79681 18.2928 3.2503C18.8104 3.70379 19.2287 4.25922 19.5217 4.88182C19.8147 5.50443 19.976 6.18082 19.9956 6.86864C20.0152 7.55647 19.8925 8.24093 19.6354 8.87918C19.3783 9.51744 18.9922 10.0958 18.5013 10.5779" stroke="#273544" stroke-opacity="0.55" stroke-width="2" stroke-linecap="round" stroke-linejoin="round"/>
</svg>
